<svg width="93" height="94" viewBox="0 0 93 94" fill="none" xmlns="http://www.w3.org/2000/svg">
<g filter="url(#filter0_di_1_20598)">
<rect x="7" y="3.67114" width="79" height="79" rx="39.5" fill="white"/>
<rect x="7.91696" y="4.58811" width="77.1661" height="77.1661" rx="38.583" stroke="white" stroke-width="1.83393"/>
<path fill-rule="evenodd" clip-rule="evenodd" d="M49.4479 29.478C50.9623 27.9613 53.4178 27.9594 54.9322 29.4739L59.6959 34.2376C61.1974 35.7391 61.2121 38.1708 59.7289 39.6926L44.0027 55.8278C43.0065 56.8499 41.6404 57.4263 40.2143 57.4262L35.0191 57.426C33.2154 57.4259 31.7756 55.923 31.8515 54.1195L32.073 48.8534C32.1288 47.528 32.6799 46.2714 33.6172 45.3327L49.4479 29.478ZM53.4365 30.9718C52.7481 30.2835 51.632 30.2843 50.9436 30.9737L47.7507 34.1715L55.046 41.4668L58.2152 38.2151C58.8894 37.5234 58.8827 36.4181 58.2002 35.7356L53.4365 30.9718ZM35.1129 46.8284L46.255 35.6695L53.5683 42.9828L42.489 54.3503C41.8913 54.9635 41.0716 55.3094 40.2159 55.3093L35.0207 55.3091C34.4195 55.3091 33.9396 54.8081 33.9649 54.207L34.1864 48.9409C34.2199 48.1456 34.5505 47.3917 35.1129 46.8284ZM60.514 57.3055C61.0981 57.3055 61.5717 56.8316 61.5717 56.247C61.5717 55.6625 61.0981 55.1886 60.514 55.1886H50.4387C49.8546 55.1886 49.3811 55.6625 49.3811 56.247C49.3811 56.8316 49.8546 57.3055 50.4387 57.3055H60.514Z" fill="#7856FF"/>
</g>
<defs>
<filter id="filter0_di_1_20598" x="0" y="0.171143" width="93" height="93" filterUnits="userSpaceOnUse" color-interpolation-filters="sRGB">
<feFlood flood-opacity="0" result="BackgroundImageFix"/>
<feColorMatrix in="SourceAlpha" type="matrix" values="0 0 0 0 0 0 0 0 0 0 0 0 0 0 0 0 0 0 127 0" result="hardAlpha"/>
<feOffset dy="3.5"/>
<feGaussianBlur stdDeviation="3.5"/>
<feComposite in2="hardAlpha" operator="out"/>
<feColorMatrix type="matrix" values="0 0 0 0 0.462745 0 0 0 0 0.32549 0 0 0 0 0.956863 0 0 0 0.5 0"/>
<feBlend mode="normal" in2="BackgroundImageFix" result="effect1_dropShadow_1_20598"/>
<feBlend mode="normal" in="SourceGraphic" in2="effect1_dropShadow_1_20598" result="shape"/>
<feColorMatrix in="SourceAlpha" type="matrix" values="0 0 0 0 0 0 0 0 0 0 0 0 0 0 0 0 0 0 127 0" result="hardAlpha"/>
<feOffset dy="7"/>
<feGaussianBlur stdDeviation="5.25"/>
<feComposite in2="hardAlpha" operator="arithmetic" k2="-1" k3="1"/>
<feColorMatrix type="matrix" values="0 0 0 0 0.462745 0 0 0 0 0.32549 0 0 0 0 0.956863 0 0 0 0.5 0"/>
<feBlend mode="normal" in2="shape" result="effect2_innerShadow_1_20598"/>
</filter>
</defs>
</svg>
