<svg width="47" height="46" viewBox="0 0 47 46" fill="none" xmlns="http://www.w3.org/2000/svg">
<path d="M46.5362 27.4178C42.7516 41.4091 31.6018 45.6356 26.5 46L26.5 36.4356C35.0339 33.8851 36.3017 25.6568 35.8688 21.8614L26.5 21.8614L26.5 2.02253e-06L47 3.8147e-06L47 21.8614C47 24.7034 46.6908 26.7498 46.5362 27.4178Z" fill="#F83167"/>
<path d="M20.0362 27.4178C16.2516 41.4091 5.10181 45.6356 1.90735e-06 46L2.74349e-06 36.4356C8.53394 33.8851 9.80166 25.6568 9.36878 21.8614L4.01761e-06 21.8614L5.9288e-06 2.02253e-06L20.5 3.8147e-06L20.5 21.8614C20.5 24.7034 20.1908 26.7498 20.0362 27.4178Z" fill="#F83167"/>
</svg>
